<?xml version="1.0" encoding="UTF-8"?>
<!DOCTYPE svg PUBLIC "-//W3C//DTD SVG 1.1//EN" "http://www.w3.org/Graphics/SVG/1.1/DTD/svg11.dtd">
<!-- Creator: CorelDRAW 2019 (64-Bit) -->
<svg xmlns="http://www.w3.org/2000/svg" xml:space="preserve" width="1467px" height="696px" version="1.1" style="shape-rendering:geometricPrecision; text-rendering:geometricPrecision; image-rendering:optimizeQuality; fill-rule:evenodd; clip-rule:evenodd"
viewBox="0 0 1320.96 626.7"
 xmlns:xlink="http://www.w3.org/1999/xlink">
 <defs>
  <style type="text/css">
   <![CDATA[
    .fil0 {fill:none}
    .fil3 {fill:#E31E24}
    .fil2 {fill:#74643E}
    .fil1 {fill:#74643E;fill-rule:nonzero}
   ]]>
  </style>
 </defs>
 <g id="Capa_x0020_1">
  <metadata id="CorelCorpID_0Corel-Layer"/>
  <rect class="fil0" width="1320.95" height="626.7"/>
  <g id="_3272429593872">
   <g>
    <path class="fil1" d="M1190.86 298.71c0.01,-1.44 -214.9,-1.06 -549.82,10.59 -50.03,1.66 -100.69,3.47 -151.43,5.43l0.16 4.4c50.74,-1.92 101.4,-3.73 151.42,-5.48 334.86,-12.2 549.67,-14.57 549.67,-14.94z"/>
    <path class="fil1" d="M711.29 209.37c-0.05,0.4 -2.89,-11.42 -19.03,-22.42 -15.5,-11.07 -43.51,-19.97 -76.96,-15.09 -9.91,1.59 -19.93,4.68 -28.69,10.53l2.5 3.62c7.94,-5.25 17.43,-8.27 26.92,-9.85 32.12,-4.98 59.47,2.99 74.76,12.99 15.95,9.88 19.63,20.94 20.5,20.22z"/>
    <path class="fil1" d="M590.41 170.71c1.08,-1.72 -23.36,-11.31 -61.81,-6.52 -5.71,0.69 -11.48,1.69 -17.2,3.56l1.38 4.17c5.26,-1.67 10.86,-2.66 16.39,-3.42 37.58,-5.17 61.36,2.1 61.24,2.21z"/>
    <path class="fil1" d="M489.32 162.27c1.01,-1.38 -24.99,-12.96 -66.98,-8.49 -6.22,0.96 -12.62,2.07 -18.64,5.71l2.45 3.66c4.75,-2.85 10.92,-4.12 16.8,-5.06 40.72,-4.86 66.53,4.39 66.37,4.18z"/>
    <path class="fil1" d="M711.29 230.86c0.38,-0.09 -6.45,-8.42 -23.55,-13.73 -16.82,-5.21 -42.19,-9.1 -73.01,-6.7 -9.19,0.78 -18.52,2.2 -27.61,5.31l1.48 4.14c8.46,-2.85 17.56,-4.27 26.53,-5.11 30.15,-2.63 55.24,0.56 71.86,4.9 16.86,4.42 23.94,11.65 24.3,11.19z"/>
    <path class="fil1" d="M826.45 237.13c2.64,-2.23 -32.74,-24.53 -91.57,-16.31 -8.63,1.2 -17.37,3.12 -25.68,6.98l1.92 3.95c7.57,-3.46 16.03,-5.39 24.39,-6.62 57.53,-8.49 92.13,11.07 90.94,12z"/>
    <path class="fil1" d="M994.47 233.01c0.04,0.37 -3.78,-11.14 -20.91,-20.52 -17.03,-9.3 -44.92,-12.72 -77.82,-11.74 -9.87,0.26 -19.83,0.87 -29.8,1.63l0.34 4.39c9.92,-0.71 19.81,-1.32 29.58,-1.66 32.64,-1.26 59.86,1.52 76.49,9.74 16.72,8.21 21.4,18.95 22.12,18.16z"/>
    <path class="fil1" d="M865.99 229.71c0.03,-0.57 -12.21,-2.38 -31.01,1.92 -2.76,0.85 -5.54,1.9 -8.31,2.9l1.81 4.01 7.68 -2.71c17.7,-4.63 29.91,-4.9 29.83,-6.12z"/>
    <path class="fil1" d="M828.81 216.16c0.13,0.01 -5.51,-8.94 -21.06,-18.57 -15.13,-9.48 -43.19,-16.88 -73.97,-6 -8.95,3.58 -17.47,8.9 -24.16,16.34l3.34 2.86c6.14,-6.73 13.99,-11.68 22.4,-15.13 29.01,-10.56 56.07,-4.27 71.07,4.23 15.47,8.63 21.85,16.88 22.38,16.27z"/>
    <path class="fil1" d="M1056.36 236.36c0.13,0.08 -1.13,-6.37 -9.43,-13.56 -7.69,-7.04 -25.98,-12.9 -43.01,-2.23 -4.89,3.12 -9.05,7.49 -12.08,12.53l3.79 2.24c2.74,-4.45 6.38,-8.28 10.66,-11.11 14.86,-9.66 31.41,-5.26 39.02,0.67 8.17,6 10.39,11.91 11.05,11.46z"/>
    <path class="fil1" d="M1111.73 240.8c-0.07,0.23 -0.93,-5.63 -8.13,-11.88 -6.54,-6.07 -22.07,-12.31 -37.51,-3.91 -4.67,2.22 -8.17,6.04 -11.59,9.91l3.56 2.58c3.08,-3.31 6.06,-6.67 10.11,-8.66 13.33,-7.62 27.24,-2.84 33.77,2.14 7.12,5.11 8.93,10.42 9.79,9.82z"/>
    <path class="fil1" d="M1154.12 243.77c0,0.17 -0.21,-4.66 -5.73,-10.11 -4.9,-5.31 -18.1,-10.57 -30.24,-2.67 -3.71,2.06 -6.25,5.47 -8.76,8.85l3.8 2.23c2.2,-2.77 4.23,-5.66 7.31,-7.41 9.97,-6.86 21.23,-3.15 26.14,0.99 5.44,4.23 6.67,8.6 7.48,8.12z"/>
    <path class="fil1" d="M901.96 202.34c0.12,-0.24 -5.15,-3.63 -15.94,-6.06 -10.49,-2.36 -27.92,-2.98 -44.93,7.42 -5.05,2.99 -9.57,6.82 -13.84,10.91l3.11 3.11c4.08,-3.83 8.33,-7.44 13,-10.31 33.24,-18.98 59.27,-2.47 58.6,-5.07z"/>
    <path class="fil1" d="M951.33 218.78c0.39,-0.97 -7.82,-4.37 -21.17,-3.05 -2,0.17 -4.06,0.8 -6.09,1.44l1.58 4.1c1.7,-0.45 3.34,-1 5.16,-1.23 12.18,-1.74 20.37,-0.53 20.52,-1.26z"/>
    <path class="fil1" d="M969.57 220.36c0.35,-0.94 -5.39,-3.65 -14.9,-2.78 -1.42,0.1 -2.92,0.56 -4.39,1.03l1.58 4.11c1.14,-0.29 2.22,-0.67 3.47,-0.83 8.33,-1.29 14.05,-0.77 14.24,-1.53z"/>
    <path class="fil1" d="M765.03 187.35c0.03,-0.73 -20.53,-1.81 -51.84,4.1 -4.68,0.9 -9.35,1.91 -14.08,3.17l1.15 4.24c4.54,-1.15 9.21,-2.18 13.78,-3.14 30.76,-6.38 51.05,-7.29 50.99,-8.37z"/>
    <path class="fil1" d="M871.66 196.64c0.03,-0.74 -17.33,-1.85 -43.71,3.32 -3.94,0.79 -7.86,1.68 -11.85,2.8l1.21 4.23 11.54 -2.76c25.8,-5.63 42.86,-6.52 42.81,-7.59z"/>
    <path class="fil1" d="M1025.18 215.73c0.05,-0.85 -12.69,-2.07 -32.12,1.19 -2.9,0.51 -5.83,1.14 -8.77,1.95l1.19 4.23 8.38 -1.9c18.92,-3.73 31.32,-4.51 31.32,-5.47z"/>
    <path class="fil1" d="M1082.84 221.81c0.04,-0.91 -10.7,-1.87 -26.92,1.36 -2.41,0.51 -4.87,1.13 -7.34,1.95l1.43 4.16 6.86 -1.87c15.66,-3.68 25.96,-4.69 25.97,-5.6z"/>
    <path class="fil1" d="M1134.25 228.23c0.13,-0.91 -9.42,-2.66 -24.07,-0.61 -2.18,0.34 -4.42,0.78 -6.68,1.41l1.25 4.22 6.15 -1.33c14.07,-2.52 23.27,-2.79 23.35,-3.69z"/>
    <path class="fil1" d="M828.81 305.64c0.91,0 1.9,-27.4 2.18,-70.15l0.02 -19.33 -4.39 0 0.01 19.33c0.28,42.75 1.27,70.15 2.18,70.15z"/>
    <path class="fil1" d="M910.52 304.7c0.91,0 1.9,-30.84 2.18,-78.97l0.02 -21.75 -4.4 0 0.02 21.75c0.27,48.13 1.28,78.97 2.18,78.97z"/>
    <path class="fil1" d="M924.86 304.7c0.91,0 1.91,-26.31 2.18,-67.35l0.02 -18.57 -4.4 0 0.03 18.57c0.27,41.04 1.27,67.35 2.17,67.35z"/>
    <path class="fil1" d="M513.18 282.4c0.91,0 1.9,-34.7 2.17,-88.85l0.03 -24.47 -4.4 0 0.02 24.47c0.27,54.15 1.27,88.85 2.18,88.85z"/>
    <path class="fil1" d="M447.09 135.2c0.77,0.49 17.55,-24.17 42.66,-63.32l11.27 -17.75 -3.72 -2.35 -11.23 17.78c-24.64,39.43 -39.74,65.15 -38.98,65.64z"/>
    <path class="fil1" d="M551.54 147.79c0.81,-0.41 -13.2,-30.48 -36.19,-76.82l-10.49 -20.91 -3.93 1.97 10.53 20.9c23.48,46.09 39.27,75.27 40.08,74.86z"/>
    <path class="fil1" d="M589.37 313.27c0.91,0 1.9,-44.16 2.18,-113.05 0.04,-10.29 0.05,-20.71 0.02,-31.14l-4.39 0c-0.03,10.43 -0.02,20.85 0.01,31.14 0.28,68.89 1.28,113.05 2.18,113.05z"/>
    <path class="fil1" d="M405.67 308.18c0.91,0 1.9,-46.32 2.18,-118.54 0.04,-10.79 0.04,-21.72 0.02,-32.67l-4.4 0c-0.02,10.95 -0.02,21.88 0.02,32.67 0.28,72.22 1.27,118.54 2.18,118.54z"/>
    <path class="fil1" d="M196.72 293.68c0.91,0 1.91,-23.76 2.18,-60.83l0.02 -16.76 -4.4 0 0.02 16.76c0.28,37.07 1.27,60.83 2.18,60.83z"/>
    <path class="fil1" d="M269.17 293.68c0.91,0 1.9,-28.2 2.18,-72.19l0.02 -19.9 -4.39 0 0.01 19.9c0.29,43.99 1.28,72.19 2.18,72.19z"/>
    <path class="fil1" d="M277.59 293.68c0.91,0 1.9,-28.2 2.18,-72.19l0.02 -19.9 -4.4 0 0.02 19.9c0.28,43.99 1.27,72.19 2.18,72.19z"/>
    <path class="fil1" d="M313.58 278.38c0.91,0 1.9,-11.16 2.18,-28.57l0.02 -7.87 -4.39 0 0.01 7.87c0.29,17.41 1.28,28.57 2.18,28.57z"/>
    <path class="fil1" d="M488.23 316.93c0.91,0 1.91,-47.8 2.18,-122.36 0.05,-11.13 0.05,-22.42 0.03,-33.71l-4.41 0c-0.02,11.29 -0.02,22.58 0.03,33.71 0.27,74.56 1.27,122.36 2.17,122.36z"/>
    <path class="fil1" d="M494.95 282.33c0.91,0 1.9,-50.52 2.18,-129.31 0.04,-11.77 0.04,-23.69 0.02,-35.63l-4.4 0c-0.02,11.94 -0.02,23.86 0.02,35.63 0.28,78.79 1.27,129.31 2.18,129.31z"/>
    <path class="fil1" d="M486.56 157.57c0.91,0 1.9,-12.3 2.18,-31.5l0.02 -8.68 -4.4 0 0.02 8.68c0.28,19.2 1.28,31.5 2.18,31.5z"/>
    <path class="fil1" d="M502.89 283.28c0.91,0 1.9,-71.12 2.19,-182.06 0.04,-16.58 0.04,-33.36 0.01,-50.18l-4.39 0c-0.03,16.82 -0.02,33.6 0.02,50.18 0.27,110.94 1.27,182.06 2.17,182.06z"/>
    <path class="fil1" d="M951.33 304.7c0.91,0 1.91,-26.31 2.18,-67.35l0.02 -18.57 -4.4 0 0.03 18.57c0.27,41.04 1.27,67.35 2.17,67.35z"/>
    <path class="fil1" d="M969.09 304.7c0.91,0 1.9,-25.88 2.18,-66.25l0.02 -18.26 -4.4 0 0.02 18.26c0.28,40.37 1.27,66.25 2.18,66.25z"/>
    <path class="fil1" d="M711.29 309.15c0.91,0 1.9,-30.57 2.17,-78.23l0.03 -21.55 -4.4 0 0.02 21.55c0.27,47.66 1.27,78.23 2.18,78.23z"/>
    <path class="fil1" d="M864.71 283.87c0,-0.91 -137.13,-2.48 -351.05,-3.64 -31.95,-0.18 -64.31,-0.32 -96.73,-0.43l-0.01 4.4c32.41,0.16 64.77,0.29 96.73,0.38 213.91,0.62 351.06,0.19 351.06,-0.71z"/>
    <path class="fil1" d="M550.18 364.99c0.33,0.97 -120.89,-46.16 -320.14,-59.28 -29.68,-1.7 -59.79,-2.34 -89.95,-2.12l0.05 4.4c30.06,-0.17 60.07,0.46 89.66,2.06 198.55,12.51 320.13,57.62 320.38,54.94z"/>
    <path class="fil1" d="M558.81 334.15c0.37,0.95 -122.78,-40.87 -322.4,-45.37 -29.73,-0.4 -59.84,0.26 -89.96,1.79l0.24 4.39c30.02,-1.47 60.02,-2.14 89.65,-1.82 198.92,3.9 322.34,43.7 322.47,41.01z"/>
    <path class="fil1" d="M405.67 172.17c0.1,-0.21 -70.13,0.72 -177,22.09 -15.96,3.11 -31.99,6.92 -48.05,10.68l1.04 4.27c16.02,-3.69 31.99,-7.5 47.88,-10.68 106.37,-21.84 176.33,-24.76 176.13,-26.36z"/>
    <path class="fil1" d="M385.14 193.12c0.11,-0.22 -70.1,-2.09 -177.75,14.97 -16.07,2.47 -32.23,5.64 -48.43,8.75l0.87 4.31c16.15,-3.05 32.26,-6.22 48.27,-8.76 107.16,-17.55 177.17,-17.67 177.04,-19.27z"/>
    <path class="fil1" d="M380.13 279.28c0.04,-0.71 -30.77,-3.51 -78.97,-2.86l-21.77 0.55 0.15 4.4 21.71 -0.59c48.01,-1.21 78.84,-0.4 78.88,-1.5z"/>
    <path class="fil1" d="M269.17 279.57c-0.02,-0.69 -20.61,-1.25 -52.57,1.22l-14.45 1.14 0.41 4.38 14.4 -1.18c31.8,-3.01 52.26,-4.44 52.21,-5.56z"/>
    <path class="fil1" d="M866.11 304.49c0.91,0 1.9,-30.16 2.18,-77.18l0.02 -21.27 -4.4 0 0.02 21.27c0.28,47.02 1.28,77.18 2.18,77.18z"/>
    <path class="fil1" d="M1242.63 260.37c0.08,-0.38 -83.45,-10.87 -214.54,-13.81 -19.57,-0.52 -39.4,-0.53 -59.25,-0.65l0 4.4c19.83,0.17 39.63,0.17 59.17,0.6 130.88,2.39 214.52,10.89 214.62,9.46z"/>
    <path class="fil1" d="M1216.22 284.57c0,-0.87 -61.11,-2.04 -156.46,-2.78 -14.24,-0.1 -28.66,-0.17 -43.11,-0.2l-0.02 4.4c14.44,0.08 28.87,0.14 43.11,0.16 95.34,0.19 156.48,-0.64 156.48,-1.58z"/>
    <path class="fil1" d="M1006.82 301.04c0.91,0 1.9,-16.14 2.18,-41.32l0.02 -11.38 -4.39 0 0.02 11.38c0.27,25.18 1.27,41.32 2.17,41.32z"/>
    <path class="fil1" d="M1016.64 300.84c0.91,0 1.9,-16.04 2.18,-41.06l0.02 -11.3 -4.4 0 0.02 11.3c0.28,25.02 1.27,41.06 2.18,41.06z"/>
    <path class="fil1" d="M1038.6 283.91c0.9,0 1.9,-10.48 2.18,-26.84l0.01 -7.39 -4.4 0 0.03 7.39c0.27,16.36 1.27,26.84 2.18,26.84z"/>
    <path class="fil1" d="M1060.2 283.91c0.91,0 1.9,-10.48 2.18,-26.84l0.02 -7.39 -4.4 0 0.03 7.39c0.27,16.36 1.27,26.84 2.17,26.84z"/>
    <path class="fil1" d="M1081.81 283.91c0.91,0 1.91,-10.48 2.18,-26.84l0.02 -7.39 -4.39 0 0.01 7.39c0.29,16.36 1.28,26.84 2.18,26.84z"/>
    <path class="fil1" d="M1099.75 284.42c0.9,0 1.9,-10.26 2.18,-26.26l0.02 -7.24 -4.4 0 0.02 7.24c0.28,16 1.27,26.26 2.18,26.26z"/>
    <path class="fil1" d="M1117.82 284.42c0.92,0 1.91,-10 2.18,-25.6l0.03 -7.06 -4.4 0 0.02 7.06c0.28,15.6 1.27,25.6 2.17,25.6z"/>
    <path class="fil1" d="M1185.49 286.52c0.91,0 1.9,-9.39 2.18,-24.04l0.02 -6.63 -4.4 0 0.02 6.63c0.27,14.65 1.27,24.04 2.18,24.04z"/>
    <path class="fil1" d="M1153.84 300.09c0.91,0 1.9,-13.74 2.18,-35.16l0.02 -9.7 -4.4 0 0.02 9.7c0.28,21.42 1.28,35.16 2.18,35.16z"/>
    <path class="fil1" d="M1129.69 300.09c0.91,0 1.9,-14.62 2.18,-37.41l0.02 -10.31 -4.4 0 0.02 10.31c0.28,22.79 1.28,37.41 2.18,37.41z"/>
    <path class="fil1" d="M1088.13 300.09c0.91,0 1.91,-15.21 2.18,-38.93l0.02 -10.71 -4.4 0 0.02 10.71c0.28,23.72 1.28,38.93 2.18,38.93z"/>
    <path class="fil1" d="M445.91 135.63c-0.26,-1 -15.31,3.26 -35.57,15.79 -3.04,1.85 -6.05,3.77 -9.05,5.82l2.47 3.64 8.88 -5.76c19.71,-12.83 33.49,-18.73 33.27,-19.49z"/>
    <path class="fil1" d="M491.19 161.42c0.74,-0.74 -11.17,-11.79 -33.15,-23.22 -3.27,-1.73 -6.59,-3.41 -10.02,-5l-1.86 4 9.88 4.87c21.96,10.8 34.62,19.94 35.15,19.35z"/>
    <path class="fil1" d="M550.27 147.84c-0.27,-1.31 -13.42,2.49 -31,13.08 -2.65,1.57 -5.29,3.22 -7.94,5.14l2.67 3.5c2.39,-1.67 4.98,-3.31 7.53,-4.93 17.19,-10.94 28.77,-16.27 28.74,-16.79z"/>
    <path class="fil1" d="M591.35 169.62c0.95,-0.94 -9.76,-10.28 -28.88,-19.86 -2.86,-1.45 -5.77,-2.86 -8.93,-4.11l-1.54 4.12c2.81,1.17 5.7,2.55 8.54,3.89 19.21,9.05 30.4,16.26 30.81,15.96z"/>
    <path class="fil1" d="M518.41 50.13c0.08,-0.45 -2.48,-1.38 -7.1,-2.61 -2.31,-0.61 -5.14,-1.3 -8.42,-2.03 -5.47,-0.7 -7.34,2.02 -11.73,3.17l-6.97 2.91 1.71 4.06 6.95 -2.96c3.41,-1.17 8.21,-4.43 9.39,-3.54 3.33,0.44 6.22,0.78 8.6,1 4.77,0.45 7.49,0.45 7.57,0z"/>
    <path class="fil1" d="M518.41 42.68c0.08,-0.44 -2.48,-1.38 -7.1,-2.61 -2.31,-0.61 -5.15,-1.3 -8.42,-2.03 -5.47,-0.69 -7.34,2.03 -11.73,3.18l-6.97 2.92 1.71 4.05 6.95 -2.96c3.41,-1.17 8.21,-4.44 9.39,-3.55 3.33,0.45 6.22,0.78 8.6,1 4.77,0.45 7.49,0.45 7.57,0z"/>
    <path class="fil1" d="M518.41 35.24c0.08,-0.45 -2.48,-1.39 -7.1,-2.62 -2.31,-0.61 -5.14,-1.3 -8.42,-2.03 -5.47,-0.7 -7.34,2.03 -11.73,3.17l-6.97 2.92 1.71 4.06 6.95 -2.96c3.41,-1.17 8.21,-4.44 9.39,-3.55 3.33,0.44 6.22,0.78 8.6,1 4.77,0.45 7.49,0.46 7.57,0.01z"/>
    <path class="fil1" d="M499.51 116.41c-0.18,0.39 -6.98,-5.77 -20.58,-1.82l-5.39 1.58 1.26 4.22 5.37 -1.63c10.09,-4.19 19.73,-0.22 19.34,-2.35z"/>
    <path class="fil1" d="M499.51 109.9c-0.18,0.39 -6.98,-5.79 -20.59,-1.83l-5.38 1.59 1.27 4.22 5.37 -1.64c10.07,-4.21 19.73,-0.21 19.33,-2.34z"/>
    <path class="fil1" d="M499.51 104.21c-0.18,0.39 -6.98,-5.77 -20.58,-1.83l-5.39 1.59 1.27 4.22 5.37 -1.63c10.08,-4.2 19.73,-0.23 19.33,-2.35z"/>
    <path class="fil1" d="M382.38 304.82c2.17,0.37 -2.47,-44.71 4.08,-111.14 2.76,-9.09 10.93,-16.2 19.84,-19.44l-1.26 -4.21c-10.43,3.69 -19.43,11.65 -22.71,22.26 -6.45,69.17 0.5,112.4 0.05,112.53z"/>
    <path class="fil1" d="M405.67 205.87c0.18,-0.76 -8.83,-1.88 -20.32,4.47 -1.7,0.94 -3.32,1.95 -4.98,3.19l2.67 3.5c1.39,-0.99 2.97,-1.99 4.48,-2.91 10.31,-6.34 18.21,-7.18 18.15,-8.25z"/>
    <path class="fil1" d="M326.93 242.51c-0.04,-0.91 -4.6,-1.69 -11.64,-1.64l-3.18 0.13 0.21 4.4 3.18 -0.18c7.01,-0.6 11.47,-1.81 11.43,-2.71z"/>
    <path class="fil1" d="M229.65 282.03c0.9,0 1.9,-9.65 2.17,-24.7l0.03 -6.81 -4.4 0 0.02 6.81c0.28,15.05 1.27,24.7 2.18,24.7z"/>
    <path class="fil1" d="M241.19 251.02c-0.05,-0.91 -3.99,-1.72 -10.08,-1.71l-2.75 0.11 0.21 4.39 2.75 -0.15c6.06,-0.56 9.91,-1.74 9.87,-2.64z"/>
    <path class="fil1" d="M1281.89 513.47c0,0 -276.89,3.86 -618.45,3.86 -341.55,0 -618.44,-3.86 -618.44,-3.86 0,0 276.89,-3.87 618.44,-3.87 341.56,0 618.45,3.87 618.45,3.87z"/>
    <path class="fil2" d="M626.43 575.73c-7.27,-2.85 -22.15,2.53 -18.95,-17.33 4.69,10.13 21.75,0.51 21.23,13.85 9.98,-12.91 23.65,-3.67 37.82,-18.37 -13.07,31.12 -29.9,20.43 -43.3,29.04 1,-2.82 2.08,-5.18 3.2,-7.19zm-2.67 -19.13l0 0c-1.99,4.08 1.69,7.51 8.18,7.61 6.48,0.1 13.38,-3.15 15.36,-7.24 1.97,-4.08 -1.7,-7.5 -8.19,-7.6 -6.48,-0.11 -13.38,3.14 -15.35,7.23z"/>
    <path class="fil1" d="M635.28 538.89c-24.63,0 -44.66,11.9 -44.66,26.53 0,3.67 1.23,7.22 3.67,10.55 0.23,0.32 0.68,0.41 1.01,0.18 0.34,-0.21 0.44,-0.66 0.24,-0.99 -1.03,-1.75 -1.63,-3.62 -1.79,-5.53 -1.01,-12.56 16.81,-24.68 39.74,-27.01 10.25,-1.04 20.28,0.04 28.25,3.05 0.38,0.16 0.8,-0.03 0.95,-0.41 0.16,-0.37 -0.02,-0.79 -0.37,-0.96 -7.84,-3.54 -17.18,-5.41 -27.04,-5.41zm40.17 17.39l0 0c0.8,1.56 1.29,3.19 1.42,4.85 1,12.56 -16.82,24.67 -39.74,27.01 -10.97,1.12 -21.53,-0.18 -29.74,-3.65 -0.37,-0.16 -0.79,0.01 -0.97,0.37 -0.16,0.37 -0.01,0.8 0.35,0.98 8.01,3.94 18.12,6.11 28.51,6.11 24.64,0 44.67,-11.9 44.67,-26.53 0,-3.42 -1.08,-6.75 -3.21,-9.9 -0.23,-0.33 -0.66,-0.42 -1,-0.22 -0.34,0.2 -0.46,0.64 -0.29,0.98z"/>
    <path class="fil1" d="M419.95 571.57c-1.41,2.03 -2.98,3.54 -4.71,4.56 -1.72,1.01 -3.63,1.51 -5.72,1.51 -2.87,0 -5.17,-0.87 -6.9,-2.61 -1.73,-1.74 -2.6,-4.06 -2.6,-6.97 0,-1.73 0.28,-3.4 0.85,-5.02 0.56,-1.61 1.38,-3.1 2.45,-4.46 1.38,-1.75 3.03,-3.08 4.97,-4 1.94,-0.91 4.07,-1.37 6.39,-1.37 0.92,0 2.29,0.13 4.11,0.41 1.8,0.27 3.02,0.44 3.64,0.52 -0.24,0.97 -0.44,1.97 -0.61,3.01 -0.17,1.02 -0.3,2.09 -0.39,3.21l-1.44 -0.19c0.03,-0.15 0.04,-0.31 0.05,-0.48 0.01,-0.16 0.01,-0.39 0.01,-0.7 0,-1.51 -0.42,-2.65 -1.28,-3.43 -0.85,-0.78 -2.1,-1.17 -3.76,-1.17 -1.61,0 -3.13,0.39 -4.58,1.15 -1.44,0.76 -2.66,1.84 -3.65,3.23 -0.94,1.27 -1.66,2.64 -2.15,4.13 -0.49,1.48 -0.74,3 -0.74,4.53 0,2.48 0.64,4.46 1.92,5.94 1.27,1.47 2.98,2.2 5.11,2.2 1.55,0 2.98,-0.39 4.31,-1.19 1.33,-0.81 2.52,-1.98 3.59,-3.53l1.13 0.72z"/>
    <path class="fil1" d="M437.99 553.43l1.1 0 4.1 20.31c0.18,0.89 0.47,1.51 0.86,1.87 0.39,0.36 0.99,0.53 1.77,0.53l-0.11 0.98c-0.91,-0.06 -1.73,-0.09 -2.48,-0.12 -0.73,-0.03 -1.42,-0.05 -2.07,-0.05 -0.77,0 -1.53,0.02 -2.28,0.07 -0.75,0.03 -1.49,0.09 -2.21,0.17l0.2 -1.03c0.9,-0.03 1.55,-0.17 1.94,-0.45 0.39,-0.28 0.59,-0.73 0.59,-1.35 0,-0.1 0,-0.24 -0.02,-0.41 -0.02,-0.16 -0.05,-0.34 -0.08,-0.54l-0.86 -4.76 -8.37 0 -3.19 5.18c-0.17,0.29 -0.31,0.54 -0.39,0.75 -0.08,0.21 -0.13,0.39 -0.13,0.53 0,0.35 0.13,0.61 0.38,0.76 0.26,0.15 0.74,0.25 1.45,0.29l-0.23 1.03c-0.64,-0.06 -1.25,-0.1 -1.82,-0.13 -0.56,-0.03 -1.09,-0.04 -1.6,-0.04 -0.5,0 -1.02,0.01 -1.54,0.04 -0.52,0.03 -1.08,0.07 -1.67,0.13l0.21 -1.05c1.2,-0.01 2.28,-0.76 3.22,-2.26 0.1,-0.15 0.18,-0.26 0.22,-0.33l13.01 -20.12zm-1.39 4.92l0 0 -5.66 8.97 7.27 0 -1.61 -8.97z"/>
    <path class="fil1" d="M448.45 577.19l0.27 -1.05c0.89,-0.02 1.53,-0.23 1.94,-0.59 0.42,-0.36 0.77,-1.14 1.05,-2.34l3.82 -15.71c0.05,-0.24 0.09,-0.47 0.12,-0.71 0.03,-0.24 0.04,-0.47 0.04,-0.69 0,-0.54 -0.17,-0.92 -0.51,-1.12 -0.35,-0.2 -1.16,-0.32 -2.44,-0.37l0.24 -0.95c1.2,0.09 2.22,0.17 3.1,0.21 0.87,0.05 1.65,0.07 2.33,0.07 0.86,0 1.7,-0.02 2.53,-0.07 0.83,-0.04 1.67,-0.12 2.52,-0.21l-0.18 0.98c-1.2,0.02 -2.07,0.16 -2.62,0.43 -0.56,0.27 -0.91,0.72 -1.06,1.34l-4.26 17.97c-0.02,0.12 -0.04,0.22 -0.05,0.32 -0.01,0.08 -0.02,0.18 -0.02,0.28 0,0.24 0.07,0.42 0.19,0.53 0.12,0.12 0.31,0.18 0.57,0.18l3.64 0c2.73,0 4.69,-0.34 5.86,-1.03 1.19,-0.7 2.11,-1.94 2.78,-3.73l1.33 0c-0.35,1.12 -0.65,2.21 -0.91,3.23 -0.25,1.03 -0.47,2.04 -0.64,3.03 -2.39,-0.07 -4.42,-0.11 -6.08,-0.15 -1.67,-0.03 -2.99,-0.05 -3.95,-0.05 -1.1,0 -2.46,0.02 -4.07,0.05 -1.61,0.04 -3.46,0.08 -5.54,0.15z"/>
    <path class="fil1" d="M471.83 577.19l0.25 -1.05c0.89,-0.02 1.55,-0.23 1.95,-0.59 0.41,-0.36 0.76,-1.14 1.05,-2.33l3.78 -15.71c0.07,-0.27 0.11,-0.52 0.15,-0.77 0.04,-0.24 0.05,-0.45 0.05,-0.63 0,-0.51 -0.15,-0.87 -0.44,-1.07 -0.3,-0.21 -0.88,-0.34 -1.74,-0.39l0.22 -0.99c0.64,0.09 1.3,0.17 2,0.21 0.71,0.05 1.45,0.07 2.26,0.07 0.91,0 1.75,-0.02 2.51,-0.07 0.75,-0.04 1.45,-0.12 2.1,-0.21l-0.22 0.99c-0.94,0.05 -1.6,0.2 -1.96,0.45 -0.37,0.25 -0.64,0.72 -0.8,1.41l-4.23 17.23c-0.01,0.02 -0.03,0.06 -0.03,0.11 -0.07,0.35 -0.1,0.61 -0.1,0.76 0,0.58 0.16,0.97 0.5,1.19 0.33,0.22 1,0.33 1.99,0.36l-0.29 1.03c-0.8,-0.08 -1.57,-0.13 -2.28,-0.17 -0.72,-0.03 -1.4,-0.06 -2.02,-0.06 -0.76,0 -1.54,0.03 -2.32,0.06 -0.78,0.04 -1.57,0.09 -2.38,0.17z"/>
    <path class="fil1" d="M486.05 577.19l0.23 -1.05c0.98,-0.02 1.68,-0.2 2.12,-0.56 0.43,-0.35 0.8,-1.14 1.11,-2.37l3.8 -15.69c0.07,-0.27 0.12,-0.53 0.15,-0.76 0.04,-0.25 0.05,-0.47 0.05,-0.65 0,-0.54 -0.17,-0.92 -0.52,-1.12 -0.36,-0.21 -1.04,-0.32 -2.08,-0.34l0.25 -0.99c0.72,0.08 1.44,0.14 2.15,0.18 0.7,0.05 1.38,0.07 2.04,0.07 0.79,0 2,-0.06 3.62,-0.16 1.62,-0.12 2.84,-0.18 3.65,-0.18 3.36,0 5.94,0.84 7.78,2.52 1.83,1.68 2.75,4.06 2.75,7.12 0,2.12 -0.43,4.08 -1.29,5.89 -0.86,1.81 -2.13,3.38 -3.79,4.73 -1.34,1.1 -2.97,1.93 -4.88,2.5 -1.91,0.58 -4.02,0.86 -6.33,0.86 -0.7,0 -1.73,-0.03 -3.11,-0.1 -1.38,-0.06 -2.41,-0.1 -3.08,-0.1 -0.7,0 -1.44,0.02 -2.21,0.05 -0.77,0.04 -1.58,0.08 -2.41,0.15zm11.16 -20.29l0 0 -3.93 16.35c-0.1,0.39 -0.18,0.7 -0.22,0.91 -0.04,0.2 -0.06,0.35 -0.06,0.42 0,0.52 0.22,0.87 0.66,1.06 0.45,0.19 1.37,0.27 2.77,0.27 1.57,0 3.02,-0.18 4.35,-0.57 1.31,-0.38 2.49,-0.94 3.5,-1.7 1.53,-1.12 2.76,-2.65 3.68,-4.56 0.91,-1.92 1.37,-3.92 1.37,-6 0,-2.58 -0.77,-4.59 -2.28,-6.05 -1.52,-1.46 -3.63,-2.19 -6.33,-2.19 -1.25,0 -2.1,0.13 -2.53,0.38 -0.44,0.24 -0.76,0.81 -0.98,1.68z"/>
    <path class="fil1" d="M529.77 553.43l1.11 0 4.09 20.31c0.18,0.89 0.47,1.51 0.87,1.87 0.39,0.36 0.98,0.53 1.77,0.53l-0.11 0.98c-0.92,-0.06 -1.74,-0.09 -2.48,-0.12 -0.74,-0.03 -1.43,-0.05 -2.08,-0.05 -0.77,0 -1.53,0.02 -2.28,0.07 -0.75,0.03 -1.48,0.09 -2.21,0.17l0.2 -1.03c0.91,-0.03 1.55,-0.17 1.94,-0.45 0.4,-0.28 0.59,-0.73 0.59,-1.35 0,-0.1 0,-0.24 -0.03,-0.41 -0.01,-0.16 -0.03,-0.34 -0.07,-0.54l-0.85 -4.76 -8.38 0 -3.18 5.18c-0.18,0.29 -0.31,0.54 -0.4,0.75 -0.08,0.21 -0.12,0.39 -0.12,0.53 0,0.35 0.12,0.61 0.37,0.76 0.25,0.15 0.74,0.25 1.45,0.29l-0.23 1.03c-0.64,-0.06 -1.25,-0.1 -1.81,-0.13 -0.57,-0.03 -1.1,-0.04 -1.61,-0.04 -0.5,0 -1.01,0.01 -1.54,0.04 -0.52,0.03 -1.08,0.07 -1.67,0.13l0.21 -1.05c1.21,-0.01 2.29,-0.76 3.23,-2.26 0.09,-0.15 0.16,-0.26 0.21,-0.33l13.01 -20.12zm-1.38 4.92l0 0 -5.67 8.97 7.27 0 -1.6 -8.97z"/>
    <path class="fil1" d="M540.04 577.19l0.23 -1.05c0.97,-0.02 1.67,-0.2 2.11,-0.56 0.44,-0.35 0.8,-1.14 1.11,-2.37l3.81 -15.69c0.07,-0.27 0.12,-0.53 0.15,-0.76 0.03,-0.25 0.05,-0.47 0.05,-0.65 0,-0.54 -0.17,-0.92 -0.53,-1.12 -0.35,-0.21 -1.04,-0.32 -2.07,-0.34l0.25 -0.99c0.72,0.08 1.44,0.14 2.14,0.18 0.71,0.05 1.39,0.07 2.04,0.07 0.8,0 2.01,-0.06 3.63,-0.16 1.62,-0.12 2.83,-0.18 3.65,-0.18 3.36,0 5.94,0.84 7.77,2.52 1.84,1.68 2.75,4.06 2.75,7.12 0,2.12 -0.42,4.08 -1.29,5.89 -0.86,1.81 -2.12,3.38 -3.79,4.73 -1.33,1.1 -2.96,1.93 -4.87,2.5 -1.91,0.58 -4.02,0.86 -6.33,0.86 -0.7,0 -1.73,-0.03 -3.11,-0.1 -1.38,-0.06 -2.4,-0.1 -3.08,-0.1 -0.7,0 -1.44,0.02 -2.21,0.05 -0.77,0.04 -1.58,0.08 -2.41,0.15zm11.16 -20.29l0 0 -3.94 16.35c-0.1,0.39 -0.17,0.7 -0.21,0.91 -0.05,0.2 -0.07,0.35 -0.07,0.42 0,0.52 0.22,0.87 0.67,1.06 0.45,0.19 1.37,0.27 2.77,0.27 1.57,0 3.02,-0.18 4.34,-0.57 1.33,-0.38 2.5,-0.94 3.51,-1.7 1.53,-1.12 2.76,-2.65 3.67,-4.56 0.92,-1.92 1.37,-3.92 1.37,-6 0,-2.58 -0.75,-4.59 -2.27,-6.05 -1.52,-1.46 -3.63,-2.19 -6.34,-2.19 -1.24,0 -2.09,0.13 -2.53,0.38 -0.43,0.24 -0.75,0.81 -0.97,1.68z"/>
    <path class="fil1" d="M703.44 577.12l0.25 -1.05c0.97,-0.02 1.66,-0.21 2.1,-0.56 0.43,-0.35 0.81,-1.15 1.11,-2.37l3.81 -15.7c0.07,-0.26 0.11,-0.51 0.15,-0.76 0.04,-0.25 0.05,-0.46 0.05,-0.64 0,-0.54 -0.18,-0.92 -0.52,-1.12 -0.36,-0.21 -1.05,-0.32 -2.07,-0.34l0.23 -0.99c0.72,0.08 1.46,0.14 2.15,0.18 0.71,0.05 1.39,0.07 2.05,0.07 0.78,0 2,-0.06 3.62,-0.17 1.61,-0.11 2.83,-0.17 3.66,-0.17 3.34,0 5.93,0.84 7.77,2.52 1.82,1.68 2.75,4.05 2.75,7.12 0,2.12 -0.44,4.08 -1.29,5.88 -0.87,1.81 -2.13,3.39 -3.79,4.74 -1.34,1.09 -2.97,1.93 -4.88,2.5 -1.91,0.57 -4.02,0.86 -6.33,0.86 -0.7,0 -1.74,-0.04 -3.11,-0.1 -1.38,-0.07 -2.4,-0.1 -3.07,-0.1 -0.71,0 -1.44,0.02 -2.22,0.05 -0.76,0.03 -1.58,0.08 -2.42,0.15zm11.18 -20.29l0 0 -3.95 16.34c-0.09,0.4 -0.16,0.71 -0.21,0.92 -0.05,0.2 -0.06,0.35 -0.06,0.42 0,0.52 0.21,0.87 0.66,1.06 0.45,0.18 1.37,0.27 2.77,0.27 1.57,0 3.02,-0.19 4.35,-0.57 1.31,-0.38 2.48,-0.95 3.51,-1.7 1.52,-1.12 2.75,-2.65 3.66,-4.56 0.92,-1.92 1.38,-3.92 1.38,-6 0,-2.57 -0.77,-4.59 -2.28,-6.05 -1.52,-1.46 -3.63,-2.19 -6.34,-2.19 -1.24,0 -2.09,0.13 -2.53,0.38 -0.43,0.24 -0.76,0.8 -0.96,1.68z"/>
    <path class="fil1" d="M737.53 553.59c0.51,0.05 1.08,0.08 1.68,0.1 0.59,0.02 1.48,0.04 2.66,0.04l1.73 0 5.44 0c1.43,0 2.69,-0.02 3.78,-0.04 1.09,-0.02 2.1,-0.05 3.01,-0.1 -0.23,0.95 -0.42,1.89 -0.57,2.82 -0.17,0.92 -0.32,1.82 -0.44,2.69l-1.42 0c0.06,-0.27 0.11,-0.51 0.12,-0.73 0.03,-0.22 0.04,-0.44 0.04,-0.64 0,-0.97 -0.28,-1.67 -0.83,-2.08 -0.56,-0.41 -1.54,-0.62 -2.93,-0.62l-3.22 0c-0.83,0 -1.43,0.08 -1.81,0.27 -0.37,0.18 -0.6,0.48 -0.69,0.9l-1.85 7.73 4.82 0c1.02,0 1.76,-0.15 2.16,-0.47 0.44,-0.31 0.75,-0.91 0.98,-1.81l1.08 0c-0.27,1 -0.53,2.04 -0.76,3.12 -0.24,1.08 -0.45,2.22 -0.63,3.41l-1.17 -0.02c0.06,-0.24 0.1,-0.48 0.12,-0.71 0.03,-0.22 0.05,-0.44 0.05,-0.63 0,-0.6 -0.16,-1.01 -0.47,-1.22 -0.32,-0.2 -0.99,-0.31 -2.03,-0.31l-4.54 0 -2.09 8.87c-0.03,0.12 -0.04,0.22 -0.05,0.3 -0.01,0.06 -0.01,0.12 -0.01,0.18 0,0.3 0.09,0.54 0.26,0.7 0.2,0.17 0.46,0.24 0.8,0.24l2.64 0c2.24,0 3.82,-0.08 4.75,-0.25 0.95,-0.17 1.73,-0.45 2.35,-0.86 0.58,-0.36 1.09,-0.85 1.53,-1.44 0.44,-0.6 0.81,-1.34 1.12,-2.2l1.35 0c-0.38,0.96 -0.71,1.96 -1.02,3 -0.29,1.05 -0.57,2.14 -0.82,3.29 -1.22,-0.07 -2.55,-0.12 -4,-0.15 -1.43,-0.03 -3.18,-0.05 -5.23,-0.05 -2.44,0 -4.45,0.02 -6.07,0.05 -1.61,0.03 -3.06,0.08 -4.34,0.15l0.26 -1.05c0.88,-0.03 1.53,-0.23 1.94,-0.59 0.42,-0.36 0.76,-1.14 1.04,-2.33l3.82 -15.71c0.05,-0.23 0.1,-0.47 0.12,-0.71 0.03,-0.24 0.05,-0.47 0.05,-0.7 0,-0.53 -0.18,-0.92 -0.53,-1.12 -0.35,-0.2 -1.15,-0.32 -2.42,-0.37l0.24 -0.95z"/>
    <path class="fil1" d="M758.8 575.42c0.31,-1.22 0.56,-2.37 0.77,-3.43 0.2,-1.05 0.35,-2.08 0.46,-3.05l1.57 0.09c-0.01,0.1 -0.01,0.24 -0.04,0.41 -0.06,0.79 -0.09,1.32 -0.09,1.58 0,1.59 0.5,2.86 1.49,3.79 0.99,0.94 2.33,1.4 4.02,1.4 1.43,0 2.64,-0.41 3.61,-1.23 0.98,-0.83 1.46,-1.82 1.46,-2.99 0,-1.5 -1.29,-3.16 -3.89,-4.98 -0.42,-0.29 -0.74,-0.52 -0.96,-0.69 -2.02,-1.44 -3.38,-2.68 -4.08,-3.69 -0.7,-1.01 -1.05,-2.15 -1.05,-3.4 0,-1.87 0.69,-3.35 2.06,-4.45 1.38,-1.1 3.24,-1.64 5.6,-1.64 0.98,0 2.25,0.16 3.84,0.48 1.57,0.32 2.6,0.52 3.04,0.58 -0.24,0.91 -0.46,1.82 -0.63,2.73 -0.18,0.91 -0.31,1.81 -0.42,2.71l-1.38 -0.19c0.05,-0.22 0.07,-0.42 0.09,-0.6 0.01,-0.19 0.02,-0.37 0.03,-0.55 0,-1.28 -0.38,-2.26 -1.13,-2.91 -0.74,-0.66 -1.84,-0.99 -3.27,-0.99 -1.43,0 -2.58,0.34 -3.46,1.02 -0.89,0.68 -1.34,1.56 -1.34,2.63 0,1.29 1.34,2.91 4.02,4.84 0.19,0.13 0.34,0.24 0.44,0.32 2.38,1.69 3.91,3.04 4.61,4.03 0.7,0.99 1.05,2.09 1.05,3.32 0,1.97 -0.81,3.63 -2.44,4.98 -1.62,1.35 -3.65,2.03 -6.07,2.03 -1.75,0 -4.29,-0.68 -7.65,-2.05 -0.13,-0.04 -0.22,-0.07 -0.26,-0.1z"/>
    <path class="fil1" d="M778.65 577.12l0.23 -1.05c0.97,-0.02 1.68,-0.21 2.11,-0.56 0.44,-0.35 0.81,-1.15 1.1,-2.37l3.82 -15.7c0.07,-0.26 0.11,-0.51 0.15,-0.76 0.04,-0.25 0.05,-0.46 0.05,-0.64 0,-0.54 -0.18,-0.92 -0.53,-1.12 -0.35,-0.21 -1.04,-0.32 -2.07,-0.34l0.25 -0.99c0.72,0.08 1.44,0.14 2.15,0.18 0.69,0.05 1.38,0.07 2.03,0.07 0.8,0 2,-0.06 3.63,-0.17 1.61,-0.11 2.84,-0.17 3.65,-0.17 3.35,0 5.94,0.84 7.77,2.52 1.84,1.68 2.75,4.05 2.75,7.12 0,2.12 -0.43,4.08 -1.28,5.88 -0.88,1.81 -2.13,3.39 -3.8,4.74 -1.33,1.09 -2.95,1.93 -4.86,2.5 -1.91,0.57 -4.03,0.86 -6.35,0.86 -0.68,0 -1.72,-0.04 -3.1,-0.1 -1.38,-0.07 -2.41,-0.1 -3.08,-0.1 -0.7,0 -1.43,0.02 -2.2,0.05 -0.78,0.03 -1.58,0.08 -2.42,0.15zm11.16 -20.29l0 0 -3.93 16.34c-0.1,0.4 -0.18,0.71 -0.22,0.92 -0.04,0.2 -0.06,0.35 -0.06,0.42 0,0.52 0.21,0.87 0.67,1.06 0.44,0.18 1.36,0.27 2.76,0.27 1.57,0 3.02,-0.19 4.34,-0.57 1.33,-0.38 2.49,-0.95 3.51,-1.7 1.53,-1.12 2.76,-2.65 3.68,-4.56 0.91,-1.92 1.36,-3.92 1.36,-6 0,-2.57 -0.76,-4.59 -2.27,-6.05 -1.52,-1.46 -3.63,-2.19 -6.33,-2.19 -1.26,0 -2.1,0.13 -2.53,0.38 -0.44,0.24 -0.77,0.8 -0.98,1.68z"/>
    <path class="fil1" d="M812.72 553.59c0.52,0.05 1.09,0.08 1.68,0.1 0.6,0.02 1.5,0.04 2.68,0.04l1.72 0 5.45 0c1.42,0 2.67,-0.02 3.77,-0.04 1.1,-0.02 2.09,-0.05 3,-0.1 -0.23,0.95 -0.41,1.89 -0.57,2.82 -0.17,0.92 -0.31,1.82 -0.43,2.69l-1.41 0c0.05,-0.27 0.09,-0.51 0.11,-0.73 0.02,-0.22 0.04,-0.44 0.04,-0.64 0,-0.97 -0.28,-1.67 -0.84,-2.08 -0.56,-0.41 -1.54,-0.62 -2.93,-0.62l-3.21 0c-0.84,0 -1.44,0.08 -1.8,0.27 -0.37,0.18 -0.6,0.48 -0.71,0.9l-1.84 7.73 4.82 0c1.03,0 1.75,-0.15 2.17,-0.47 0.42,-0.31 0.74,-0.91 0.96,-1.81l1.09 0c-0.28,1 -0.53,2.04 -0.76,3.12 -0.24,1.08 -0.46,2.22 -0.65,3.41l-1.15 -0.02c0.06,-0.24 0.09,-0.48 0.13,-0.71 0.03,-0.22 0.03,-0.44 0.03,-0.63 0,-0.6 -0.14,-1.01 -0.47,-1.22 -0.3,-0.2 -0.98,-0.31 -2.02,-0.31l-4.53 0 -2.1 8.87c-0.02,0.12 -0.04,0.22 -0.05,0.3 -0.02,0.06 -0.02,0.12 -0.02,0.18 0,0.3 0.08,0.54 0.27,0.7 0.19,0.17 0.46,0.24 0.81,0.24l2.63 0c2.23,0 3.83,-0.08 4.75,-0.25 0.94,-0.17 1.72,-0.45 2.35,-0.86 0.58,-0.36 1.09,-0.85 1.52,-1.44 0.44,-0.6 0.81,-1.34 1.13,-2.2l1.34 0c-0.37,0.96 -0.7,1.96 -1.01,3 -0.29,1.05 -0.58,2.14 -0.82,3.29 -1.22,-0.07 -2.55,-0.12 -3.99,-0.15 -1.44,-0.03 -3.2,-0.05 -5.24,-0.05 -2.44,0 -4.45,0.02 -6.07,0.05 -1.62,0.03 -3.06,0.08 -4.35,0.15l0.27 -1.05c0.89,-0.03 1.53,-0.23 1.94,-0.59 0.42,-0.36 0.76,-1.14 1.04,-2.33l3.82 -15.71c0.06,-0.23 0.09,-0.47 0.12,-0.71 0.02,-0.24 0.04,-0.47 0.04,-0.7 0,-0.53 -0.17,-0.92 -0.51,-1.12 -0.35,-0.2 -1.16,-0.32 -2.44,-0.37l0.24 -0.95z"/>
    <path class="fil1" d="M846.48 577.12l0.28 -1.29 0.71 0c1.47,0 2.5,-0.15 3.11,-0.44 0.59,-0.3 0.98,-0.82 1.15,-1.58l3.43 -14.85c0.03,-0.13 0.07,-0.24 0.07,-0.35 0.02,-0.12 0.04,-0.21 0.04,-0.28 0,-0.24 -0.08,-0.42 -0.19,-0.54 -0.13,-0.11 -0.33,-0.17 -0.6,-0.17 -0.12,0 -0.23,0.01 -0.36,0.03 -0.11,0.02 -0.22,0.05 -0.33,0.09l-3.58 1.3 0 -1.32c1.32,-0.41 2.66,-0.94 4.04,-1.61 1.38,-0.66 2.81,-1.45 4.28,-2.38l1.02 0 -4.59 19.76c-0.03,0.14 -0.06,0.27 -0.08,0.4 -0.01,0.13 -0.02,0.27 -0.02,0.45 0,0.55 0.22,0.94 0.68,1.16 0.45,0.22 1.26,0.33 2.44,0.33 0.36,0 0.64,0 0.85,-0.01 0.2,0 0.39,0 0.56,0l-0.36 1.3c-1.19,-0.08 -2.31,-0.13 -3.37,-0.17 -1.05,-0.04 -2.02,-0.06 -2.9,-0.06 -1.13,0 -2.22,0.02 -3.26,0.06 -1.04,0.04 -2.05,0.09 -3.02,0.17z"/>
    <path class="fil1" d="M880.16 566.79c-0.85,1.12 -1.79,1.97 -2.82,2.52 -1.03,0.57 -2.15,0.85 -3.36,0.85 -1.77,0 -3.18,-0.6 -4.25,-1.79 -1.04,-1.19 -1.58,-2.8 -1.58,-4.83 0,-1.33 0.26,-2.64 0.77,-3.9 0.51,-1.27 1.22,-2.36 2.13,-3.3 0.84,-0.86 1.8,-1.53 2.87,-1.99 1.08,-0.46 2.22,-0.68 3.44,-0.68 2.2,0 3.9,0.69 5.08,2.08 1.19,1.4 1.78,3.38 1.78,5.97 0,2 -0.33,3.95 -0.99,5.86 -0.68,1.9 -1.61,3.59 -2.82,5.07 -1.33,1.62 -2.83,2.87 -4.51,3.75 -1.68,0.87 -3.42,1.31 -5.21,1.31 -0.66,0 -1.31,-0.07 -1.97,-0.21 -0.67,-0.14 -1.34,-0.35 -2.04,-0.64l0.75 -1.28c0.6,0.22 1.17,0.38 1.71,0.49 0.55,0.11 1.07,0.17 1.54,0.17 2.24,0 4.21,-0.86 5.94,-2.57 1.73,-1.71 2.91,-4 3.54,-6.88zm-3.81 -11.48l0 0c-1.46,0 -2.75,0.66 -3.83,1.99 -1.1,1.33 -1.65,2.92 -1.65,4.78 0,1.67 0.43,3.02 1.3,4.05 0.86,1.03 1.99,1.54 3.39,1.54 1.55,0 2.81,-0.62 3.77,-1.85 0.96,-1.24 1.44,-2.86 1.44,-4.88 0,-1.7 -0.41,-3.06 -1.22,-4.09 -0.81,-1.03 -1.87,-1.54 -3.2,-1.54z"/>
    <path class="fil1" d="M888.97 577.12l0.27 -1.29 0.72 0c1.47,0 2.5,-0.15 3.1,-0.44 0.59,-0.3 0.99,-0.82 1.17,-1.58l3.42 -14.85c0.03,-0.13 0.06,-0.24 0.07,-0.35 0.02,-0.12 0.03,-0.21 0.03,-0.28 0,-0.24 -0.06,-0.42 -0.18,-0.54 -0.12,-0.11 -0.32,-0.17 -0.6,-0.17 -0.12,0 -0.23,0.01 -0.35,0.03 -0.12,0.02 -0.24,0.05 -0.34,0.09l-3.58 1.3 0 -1.32c1.31,-0.41 2.65,-0.94 4.04,-1.61 1.38,-0.66 2.81,-1.45 4.28,-2.38l1.02 0 -4.59 19.76c-0.04,0.14 -0.05,0.27 -0.07,0.4 -0.02,0.13 -0.03,0.27 -0.03,0.45 0,0.55 0.23,0.94 0.68,1.16 0.45,0.22 1.26,0.33 2.43,0.33 0.36,0 0.65,0 0.86,-0.01 0.2,0 0.38,0 0.56,0l-0.36 1.3c-1.19,-0.08 -2.32,-0.13 -3.36,-0.17 -1.06,-0.04 -2.03,-0.06 -2.91,-0.06 -1.14,0 -2.21,0.02 -3.26,0.06 -1.04,0.04 -2.04,0.09 -3.02,0.17z"/>
    <path class="fil1" d="M909.2 574.39l1.06 -0.81c0.6,0.85 1.3,1.49 2.09,1.91 0.79,0.42 1.7,0.64 2.71,0.64 1.88,0 3.44,-0.68 4.69,-2.05 1.24,-1.36 1.87,-3.07 1.87,-5.13 0,-1.63 -0.42,-2.94 -1.25,-3.92 -0.84,-0.98 -1.96,-1.46 -3.35,-1.46 -0.76,0 -1.46,0.13 -2.09,0.39 -0.63,0.26 -1.21,0.66 -1.76,1.2l-1.06 -0.22 3.05 -10.42 8.18 0c0.87,0 1.47,-0.06 1.82,-0.18 0.35,-0.12 0.61,-0.33 0.79,-0.61l0.92 0c-0.23,0.47 -0.45,0.98 -0.67,1.52 -0.23,0.53 -0.43,1.12 -0.62,1.75 -1.24,-0.01 -2.19,-0.03 -2.88,-0.04 -0.67,-0.01 -1.29,-0.02 -1.86,-0.02 -0.83,0 -2.21,0.03 -4.18,0.06l-0.71 0 -1.71 5.82c0.71,-0.4 1.41,-0.7 2.12,-0.9 0.72,-0.21 1.45,-0.3 2.21,-0.3 1.94,0 3.48,0.61 4.64,1.83 1.17,1.22 1.75,2.85 1.75,4.88 0,1.26 -0.29,2.48 -0.85,3.68 -0.55,1.21 -1.34,2.28 -2.36,3.23 -0.85,0.8 -1.81,1.41 -2.86,1.81 -1.05,0.4 -2.2,0.6 -3.44,0.6 -1.43,0 -2.65,-0.26 -3.66,-0.79 -1.01,-0.53 -1.87,-1.35 -2.59,-2.47z"/>
    <path class="fil3" d="M789.76 390.3c1.72,-5.05 5.39,-6.64 9.18,-7.16 7.83,-1.73 14.11,-0.89 21.03,-0.33 5.51,0.77 5.67,5.5 4.6,9.5 -1.06,4.66 -12.17,27.77 -15.5,44.6 -1.05,5.7 -0.49,11.1 5.48,11.1 3.6,-0.06 6.59,-2.38 8.62,-6.3 7.9,-16.24 11.2,-34.87 16.81,-52.2 1.35,-4.66 3.03,-6.21 6.91,-6.56 6.9,-0.86 13.25,-0.49 19.9,0.26 4.09,0.89 7.17,3.68 6.02,8.62 -4.34,19.6 -11.24,38.75 -17.58,57.25 -7.16,14.99 -20.1,23.73 -40,24.04 -21.42,0.42 -43.92,-8.42 -42.53,-28.34 1.31,-18.88 10.8,-36.57 17.06,-54.48z"/>
    <path class="fil3" d="M882.72 387.07c-1.53,4.29 -3.65,8.49 -4.62,13.06 -0.62,3.04 0.56,5.69 3.78,5.73 1.15,0.17 2.37,0.05 3.51,-0.06 1.24,0.09 1.33,0.45 0.79,1.41l-16.04 53.42c-1.24,5.05 -0.32,9.96 3.88,11.7 7.41,1.68 15.67,2.69 22.38,0.78 3.4,-1.19 5.83,-3.22 6.74,-6.08l7.62 -26.57c8.99,9.91 12.45,25.87 24.22,32.62 5.92,3.41 11.38,1.14 17.51,-0.86 10.09,-3.47 11.92,-7.95 7.45,-14.14 -5.79,-7.2 -10.94,-14.9 -16.17,-22.78 17.43,-6.62 26.73,-12.06 27.92,-32.1 0.91,-20.95 -25.82,-26.69 -44.01,-26.59 -11.66,-0.01 -25.37,2.1 -36.99,4.66 -3.21,0.9 -6.6,2.47 -7.97,5.8zm35 32.06l0 0c1.15,-5.43 2.68,-10.75 4.59,-16.18 1.19,-2.21 3.29,-2.23 5.28,-2.36 4.44,0.02 9.6,2.12 9.47,6.96 -0.43,7.68 -7.29,12.06 -17.02,13.53 -1.8,0.41 -2.75,0.23 -2.32,-1.95z"/>
    <path class="fil3" d="M667.65 369.59c-1.86,5.17 -4.4,10.22 -5.58,15.72 -0.74,3.66 0.68,6.84 4.57,6.89 1.38,0.21 2.85,0.07 4.22,-0.07 1.48,0.11 1.6,0.55 0.93,1.7l-19.29 64.31c-1.51,6.08 -0.39,11.98 4.66,14.08 4.82,1.1 23.31,0.64 27.38,-0.52 4.08,-1.44 7.02,-3.88 8.09,-7.31l8.78 -30.52c22.62,2.14 70.67,-0.08 73.34,-44.86 1.09,-25.23 -31.08,-32.14 -52.98,-32.01 -14.04,-0.02 -30.54,2.53 -44.52,5.6 -3.87,1.08 -7.95,2.98 -9.6,6.99zm42.13 38.59l0 0c1.4,-6.52 3.23,-12.94 5.52,-19.48 1.44,-2.65 3.96,-2.68 6.36,-2.84 5.36,0.03 11.55,2.56 11.41,8.38 -0.53,9.25 -8.78,14.52 -20.5,16.29 -2.17,0.49 -3.31,0.28 -2.79,-2.35z"/>
    <path class="fil3" d="M1041.46 382.91c24.18,1.41 47.91,1.71 71.32,-0.84 4.68,-0.64 6.88,3.59 5.93,7.68 -2.26,5.55 -4.07,11.92 -8.93,15.7 -5.21,4.16 -12.81,5.13 -19.82,5.34l-16.66 52.53c-1.55,3.44 -3.49,6.98 -7.47,8.47 -7.07,1.92 -14,1.54 -21.68,0.34 -7.37,-1.03 -8.61,-6.51 -7.03,-12.41l14.9 -48.04c-5.14,-0.3 -10.19,-0.8 -15.71,-2.41 -4.87,-2.02 -7.57,-6.44 -5.98,-12.34 0.84,-2.67 1.7,-5.25 2.57,-7.81 2.09,-5.26 4.3,-6.25 8.56,-6.21z"/>
    <path class="fil3" d="M1138.13 391.53c-16.23,22.81 -31.5,46.75 -44.07,72.91 -2.01,4.49 0.41,8.34 3.74,8.75 4.84,0.5 9.2,0.44 13.74,-0.21 3.32,-0.24 6.12,-2.27 7.89,-5.05 1.2,-2.01 1.83,-4.2 2.74,-6.2l28.42 -0.45c1.86,3.85 1.1,9.56 5.59,11.57 9.71,2.69 19.37,2.25 28.71,-0.73 3.48,-1.57 4.86,-4.63 4.23,-8.12 -4.57,-25.72 -8.58,-51.62 -14.86,-76.93 -1.4,-4.62 -3.44,-7.52 -9.71,-8.09 -6.63,0.1 -13.25,0.12 -19.88,1.07 -3.3,0.72 -6.49,2.48 -5.6,5.49 0.99,2.83 0.92,3.97 -0.94,5.99zm-3.26 52.08l0 0 12.89 -0.19c1.23,-0.03 1.98,-0.32 1.77,-1.65 -0.21,-6.91 -1.55,-13.71 -2.87,-20.61 -0.52,-1.71 -1.17,-1.41 -2.09,0.03 -4.65,6.61 -8.32,13.31 -11.33,20.37 -0.37,1.43 0.21,2.07 1.63,2.05z"/>
    <path class="fil3" d="M1265.09 403.01c-5.2,-2.32 -9.26,-2.8 -14.6,-3.08 -5.17,-0.38 -10.74,2.74 -10.68,6.34 0.07,3.86 10.6,6.09 16.79,7.65 14.33,3.65 24.87,11.95 24.17,24.95 -1.27,20.1 -18.53,35.01 -43.19,36.23 -14.36,0.23 -25.55,-2.27 -37.87,-7.89 -3.74,-2.04 -5.73,-5.42 -4.23,-9.78 1.95,-4.99 4.76,-8.45 7.46,-12.19 1.98,-2.32 4.83,-3.38 7.72,-1.4 6.68,3.76 15.68,7.31 24.15,7.64 4.97,-0.08 12.05,-1.4 11.97,-6.18 -0.08,-5.53 -12.08,-6.35 -19.11,-9.01 -12.5,-4.31 -25.02,-9.27 -25.45,-25.02 -0.23,-20.99 24.81,-33.73 45.07,-33.21 11.34,0.37 18.91,1.64 28,6 3.16,1.7 5.96,4.89 4.56,9.05 -0.97,3.34 -2.3,5.83 -3.73,8.72 -2.79,3.9 -6.39,3.51 -11.03,1.18z"/>
    <path class="fil3" d="M1025.24 392.91c1.77,-5.94 -1.84,-10.8 -8.04,-10.8l-12.52 0c-6.2,0 -12.73,4.86 -14.51,10.8l-20.96 69.97c-1.78,5.94 1.84,10.8 8.05,10.8l12.5 0c6.21,0 12.74,-4.86 14.52,-10.8l20.96 -69.97z"/>
    <path class="fil3" d="M361.55 385.71c-4.36,9.84 -15.94,44.51 -15.94,44.51 -1.06,3.57 -4.37,14.07 -5.35,17.62l29.55 -0.01c2.69,0 4.2,2.16 3.34,4.8l-4.26 13.25c-0.85,2.64 -3.74,4.81 -6.42,4.81l-34.89 0.02c-0.03,0 -0.06,0 -0.08,0l-19.27 0c-3.84,0 -6.28,-3.08 -5.36,-6.85 6.02,-24.82 13.98,-49.77 23.89,-74.6 -0.55,-1.99 -0.34,-4.46 0.46,-5.72 1.52,-2.36 3.55,-3.03 5.76,-3.03l4.32 0c4.32,0 14.7,0.02 21.04,0.03 3.09,-0.02 4.11,2.27 3.21,5.17z"/>
    <path class="fil3" d="M437.89 385.71c-8.44,23.07 -14.7,41.31 -23.15,72.56 -2.59,8.71 -4.93,12.44 -10.81,12.44 -0.03,0 -0.06,0 -0.09,0l-19.25 0c-3.85,0 -6.29,-3.08 -5.37,-6.85 6.02,-24.82 13.99,-49.77 23.88,-74.6 -0.54,-1.99 -0.33,-4.46 0.47,-5.72 1.52,-2.36 3.55,-3.03 5.75,-3.03l4.33 0c4.32,0 14.7,0.02 21.05,0.03 3.08,-0.02 4.09,2.27 3.19,5.17z"/>
    <path class="fil3" d="M539.37 387.38c-9.69,24.77 -17.44,49.65 -23.25,74.42 0.71,2.16 0.39,4.71 -0.53,6.13 -1.52,2.37 -3.63,2.77 -5.21,2.76l0 0.01 -22.53 0 -4.31 0c-3.84,0 -7.16,-3.08 -7.42,-6.86 -1.11,-15.34 -2.97,-30.72 -5.56,-46.09 -1.24,3.81 -11.99,42.31 -12.86,46.09 -0.22,0.94 -0.62,1.86 -1.16,2.67 -1.62,2.49 -4.5,4.22 -7.37,4.22l-16.96 0c-3.84,0 -6.33,-3.09 -5.45,-6.86 2.93,-12.73 6.39,-25.49 10.36,-38.26 0,-0.01 0,-0.02 0.01,-0.03 0.97,-3.14 1.98,-6.27 3.01,-9.4 0.11,-0.34 0.22,-0.66 0.32,-0.99 0.95,-2.81 1.9,-5.64 2.89,-8.44 0.18,-0.55 0.39,-1.08 0.57,-1.62 0.93,-2.61 1.85,-5.22 2.82,-7.82 0.26,-0.7 0.53,-1.39 0.79,-2.09 0.74,-1.99 1.47,-3.97 2.24,-5.95 -0.58,-2 -0.38,-4.47 0.41,-5.72 1.48,-2.37 3.51,-3.04 5.72,-3.04l4.33 0 9.61 0 7.35 0 0.42 0c3.83,0 7.74,3.09 8.63,6.87 2.81,12.15 6.09,29.14 7.98,41.32 3.83,-12.18 9.47,-29.17 14.22,-41.32 1.48,-3.78 5.87,-6.87 9.72,-6.87l16.96 0c3.84,0 5.72,3.09 4.25,6.87z"/>
    <path class="fil3" d="M208.13 371.62c4.81,-4.8 2.8,-10.64 -2.96,-10.64l-16.96 0 -8.95 0 -0.51 0c-4.66,0 -11,3.75 -14,8.35 -9.31,14.25 -21.4,33.93 -29.9,48.61 -0.11,-14.68 -0.93,-34.36 -2.06,-48.61 -0.37,-4.6 -4.56,-8.35 -9.23,-8.35l-26.41 0c-2.69,0 -5.27,0.81 -7.52,3.69 -1.19,1.52 -1.88,4.52 -1.55,6.95 -17.32,33.67 -35.88,75.27 -41.81,90.76 -1.77,4.59 0.68,8.35 5.35,8.35l20.63 0c6.68,0 10.73,-5.96 11.66,-8.38 1.76,-4.6 21.97,-51.45 24.19,-56.07 -0.15,19.13 -0.88,36.6 -1.79,56.07 -0.19,4.21 2.55,7.66 6.62,8.23 0.75,0.12 4.1,0.1 4.1,0.1l9.07 0.02c6.35,0 9.17,-3.58 13.35,-11.13 9.91,-17.94 17.81,-33.59 28.82,-53.29 -0.44,4.62 -7.07,51.47 -7.95,56.07 -0.21,1.16 -0.19,2.26 0.05,3.26 0.71,3 3.3,5.12 6.81,5.12l20.63 0c4.68,0 9.28,-3.76 10.14,-8.35 2.95,-15.49 10.09,-88.35 10.18,-90.76z"/>
    <path class="fil3" d="M631.52 400.99c-0.34,-2.72 -1.26,-5.28 -2.67,-7.64l0 -0.01c-5.25,-8.72 -17.32,-14.58 -32.72,-14.58 -18.42,0 -36,8.39 -44.39,20.04l0.05 -0.12c0,0 -4.31,4.06 -9.91,16.49 -6.44,14.33 -7.52,22.45 -7.82,31.9 -0.02,0.25 -0.02,0.5 -0.03,0.76 0,0 0,0 0,0.01l0 0c-0.11,14.49 14.62,25.57 35.43,25.57 14.41,0 28.33,-5.31 37.7,-13.39 0,0 0.02,-0.02 0.02,-0.03 0.01,0 0.01,-0.01 0.02,-0.02 0.53,-0.44 13.58,-11.7 19.79,-28.09 4.78,-12.61 6.25,-22.57 4.53,-30.89zm-32.4 11.97l0 0c-0.25,4.35 -1.55,9.56 -4.04,16.15 -3.22,8.58 -7.94,14.47 -8.12,14.7l-0.02 0c0,0.02 -0.01,0.02 -0.01,0.02 -3.38,4.23 -7.81,7.01 -11.91,7.01 -5.92,0 -9.12,-5.79 -7.8,-13.37l0 0 0 -0.01c0.02,-0.14 0.05,-0.26 0.08,-0.39 0.92,-4.95 1.95,-9.2 5.06,-16.7 2.7,-6.5 4.29,-8.62 4.29,-8.62l-0.02 0.06c3.41,-6.09 9.16,-10.49 14.4,-10.49 4.38,0 7.29,3.07 8.01,7.64 0.19,1.23 0.22,2.58 0.08,4z"/>
    <path class="fil3" d="M308.5 400.99c-0.35,-2.72 -1.27,-5.28 -2.68,-7.64l0 -0.01c-5.24,-8.72 -17.31,-14.58 -32.71,-14.58 -18.42,0 -36.01,8.39 -44.39,20.04l0.04 -0.12c0,0 -4.32,4.06 -9.91,16.49 -6.44,14.33 -7.52,22.45 -7.82,31.9 -0.02,0.25 -0.02,0.5 -0.02,0.76 -0.01,0 -0.01,0 -0.01,0.01l0.01 0c-0.11,14.49 14.61,25.57 35.42,25.57 14.42,0 28.33,-5.31 37.7,-13.39 0,0 0.02,-0.02 0.02,-0.03 0.01,0 0.02,-0.01 0.03,-0.02 0.51,-0.44 13.57,-11.7 19.78,-28.09 4.78,-12.61 6.24,-22.57 4.54,-30.89zm-32.4 11.97l0 0c-0.25,4.35 -1.56,9.56 -4.05,16.15 -3.22,8.58 -7.93,14.47 -8.13,14.7 0,0 0,0 -0.01,0 0,0.02 0,0.02 0,0.02 -3.38,4.23 -7.82,7.01 -11.91,7.01 -5.93,0 -9.12,-5.79 -7.81,-13.37 0,0 0,-0.01 0.01,-0.01 0.01,-0.14 0.05,-0.26 0.07,-0.39 0.92,-4.95 1.96,-9.2 5.06,-16.7 2.7,-6.5 4.3,-8.62 4.3,-8.62l-0.03 0.06c3.42,-6.09 9.17,-10.49 14.41,-10.49 4.38,0 7.29,3.07 8.01,7.64 0.19,1.23 0.22,2.58 0.08,4z"/>
   </g>
  </g>
 </g>
</svg>
